<?xml version="1.0" encoding="UTF-8" standalone="no"?>
<!-- Created with Inkscape (http://www.inkscape.org/) -->

<svg
   xmlns:dc="http://purl.org/dc/elements/1.1/"
   xmlns:cc="http://creativecommons.org/ns#"
   xmlns:rdf="http://www.w3.org/1999/02/22-rdf-syntax-ns#"
   xmlns:svg="http://www.w3.org/2000/svg"
   xmlns="http://www.w3.org/2000/svg"
   xmlns:sodipodi="http://sodipodi.sourceforge.net/DTD/sodipodi-0.dtd"
   xmlns:inkscape="http://www.inkscape.org/namespaces/inkscape"
   width="210mm"
   height="297mm"
   viewBox="0 0 210 297"
   version="1.1"
   id="svg8"
   inkscape:version="0.92.1 r15371"
   sodipodi:docname="mgLogoVec.svg">
  <defs
     id="defs2" />
  <sodipodi:namedview
     id="base"
     pagecolor="#ffffff"
     bordercolor="#666666"
     borderopacity="1.0"
     inkscape:pageopacity="0.0"
     inkscape:pageshadow="2"
     inkscape:zoom="1.4"
     inkscape:cx="1126.5167"
     inkscape:cy="393.02859"
     inkscape:document-units="mm"
     inkscape:current-layer="layer1"
     showgrid="false"
     inkscape:window-width="1920"
     inkscape:window-height="1017"
     inkscape:window-x="1912"
     inkscape:window-y="-8"
     inkscape:window-maximized="1" />
  <metadata
     id="metadata5">
    <rdf:RDF>
      <cc:Work
         rdf:about="">
        <dc:format>image/svg+xml</dc:format>
        <dc:type
           rdf:resource="http://purl.org/dc/dcmitype/StillImage" />
        <dc:title></dc:title>
      </cc:Work>
    </rdf:RDF>
  </metadata>
  <g
     inkscape:label="Calque 1"
     inkscape:groupmode="layer"
     id="layer1">
    <path
       inkscape:connector-curvature="0"
       id="path4557"
       style="font-style:normal;font-variant:normal;font-weight:bold;font-stretch:normal;font-size:56.27741623px;line-height:1.25;font-family:Calibri;-inkscape-font-specification:'Calibri Bold';letter-spacing:0px;word-spacing:0px;fill:#ffdd55;fill-opacity:1;stroke:#008000;stroke-width:1.24630105;stroke-miterlimit:4;stroke-dasharray:none"
       d="m 125.98738,203.94927 q 0,0.27479 -0.16487,0.49462 -0.1374,0.21984 -0.54959,0.35723 -0.38471,0.1374 -1.04421,0.21984 -0.6595,0.0824 -1.67623,0.0824 -0.98925,0 -1.64875,-0.0824 -0.6595,-0.0824 -1.04421,-0.21984 -0.38471,-0.13739 -0.54959,-0.35723 -0.16487,-0.21983 -0.16487,-0.49462 v -28.93561 h -0.055 l -10.3047,28.90813 q -0.10992,0.35723 -0.35723,0.60454 -0.24731,0.21984 -0.68698,0.35723 -0.41219,0.1374 -1.07169,0.16488 -0.6595,0.055 -1.5938,0.055 -0.93429,0 -1.59379,-0.0824 -0.6595,-0.055 -1.09917,-0.19236 -0.41219,-0.16487 -0.6595,-0.38471 -0.24731,-0.21983 -0.32975,-0.5221 l -9.94747,-28.90813 h -0.05496 v 28.93561 q 0,0.27479 -0.164876,0.49462 -0.137396,0.21984 -0.549584,0.35723 -0.412188,0.1374 -1.071689,0.21984 -0.632022,0.0824 -1.648752,0.0824 -0.989252,0 -1.648753,-0.0824 -0.659501,-0.0824 -1.071689,-0.21984 -0.384709,-0.13739 -0.549584,-0.35723 -0.137396,-0.21983 -0.137396,-0.49462 v -31.68353 q 0,-1.40144 0.741939,-2.14337 0.741938,-0.74194 1.978502,-0.74194 h 4.726424 q 1.264044,0 2.170857,0.21983 0.906814,0.19235 1.566315,0.68698 0.659508,0.46715 1.099168,1.26404 0.43967,0.76942 0.76942,1.92355 l 7.694178,21.18647 h 0.10992 l 7.96897,-21.13151 q 0.35722,-1.15413 0.76941,-1.95103 0.43967,-0.79689 0.98925,-1.29152 0.57707,-0.49463 1.34649,-0.68698 0.76941,-0.21983 1.78614,-0.21983 h 4.86382 q 0.74194,0 1.26405,0.19235 0.54958,0.19236 0.87933,0.57706 0.35723,0.35723 0.52211,0.90682 0.19235,0.5221 0.19235,1.20908 z" />
    <path
       inkscape:connector-curvature="0"
       id="path4559"
       style="font-style:normal;font-variant:normal;font-weight:bold;font-stretch:normal;font-size:56.27741623px;line-height:1.25;font-family:Calibri;-inkscape-font-specification:'Calibri Bold';letter-spacing:0px;word-spacing:0px;fill:#ffdd55;fill-opacity:1;stroke:#008000;stroke-width:1.24630105;stroke-miterlimit:4;stroke-dasharray:none"
       d="m 149.53606,174.90375 q 0,0.79689 -0.0824,1.37396 -0.055,0.57706 -0.19236,0.93429 -0.10991,0.32975 -0.30227,0.46715 -0.16487,0.13739 -0.41219,0.13739 -0.35723,0 -1.15412,-0.49462 -0.7969,-0.49463 -2.1159,-1.07169 -1.319,-0.57707 -3.16011,-1.07169 -1.81363,-0.49463 -4.2318,-0.49463 -2.58304,0 -4.67146,0.90682 -2.08842,0.87933 -3.5723,2.52808 -1.48388,1.62128 -2.28078,3.92953 -0.79689,2.28078 -0.79689,5.05618 0,3.05019 0.79689,5.38592 0.82438,2.30825 2.28078,3.87457 1.4564,1.56631 3.48986,2.36321 2.06094,0.7969 4.53407,0.7969 1.20908,0 2.39069,-0.2748 1.1816,-0.27479 2.19833,-0.82437 v -8.24376 h -6.7324 q -0.49463,0 -0.76942,-0.60455 -0.27479,-0.63202 -0.27479,-2.1159 0,-0.76941 0.055,-1.29152 0.0824,-0.5221 0.21983,-0.82437 0.1374,-0.32975 0.32975,-0.46715 0.19236,-0.16488 0.43967,-0.16488 h 12.00841 q 0.43967,0 0.76942,0.16488 0.35723,0.1374 0.60454,0.43967 0.27479,0.30227 0.41219,0.74194 0.1374,0.41218 0.1374,0.96177 v 14.15179 q 0,0.82438 -0.30227,1.4564 -0.2748,0.60454 -1.18161,0.96177 -0.87933,0.35723 -2.19834,0.74194 -1.319,0.38471 -2.74792,0.6595 -1.40144,0.27479 -2.85784,0.41219 -1.42891,0.13739 -2.88531,0.13739 -4.25928,0 -7.63922,-1.20908 -3.35246,-1.23657 -5.6882,-3.54482 -2.33573,-2.33573 -3.57229,-5.66072 -1.23657,-3.35246 -1.23657,-7.58426 0,-4.36919 1.319,-7.83157 1.31901,-3.48986 3.73718,-5.90803 2.41817,-2.44565 5.82559,-3.73717 3.4349,-1.29153 7.63922,-1.29153 2.30825,0 4.20432,0.32975 1.89606,0.30228 3.2975,0.76942 1.42892,0.43967 2.36321,0.96177 0.9343,0.52211 1.29153,0.90682 0.3847,0.38471 0.54958,1.09917 0.16487,0.68698 0.16487,2.06094 z" />
    <text
       xml:space="preserve"
       style="font-style:normal;font-weight:normal;font-size:5.27600765px;line-height:1.25;font-family:sans-serif;letter-spacing:0px;word-spacing:0px;fill:#ffdd55;fill-opacity:1;stroke:#008000;stroke-width:1.24630105;stroke-miterlimit:4;stroke-dasharray:none"
       x="49.316704"
       y="124.75043"
       id="text4509-2"><tspan
         sodipodi:role="line"
         id="tspan4507-2"
         x="49.316704"
         y="124.75043"
         style="font-style:normal;font-variant:normal;font-weight:bold;font-stretch:normal;font-size:56.27741623px;font-family:Calibri;-inkscape-font-specification:'Calibri Bold';fill:#ffdd55;stroke:#008000;stroke-width:1.24630105;stroke-miterlimit:4;stroke-dasharray:none">MG</tspan></text>
    <g
       id="g4588"
       transform="matrix(2.6296155,0,0,3.4455764,86.066583,-666.87433)"
       inkscape:export-xdpi="200"
       inkscape:export-ydpi="200">
      <path
         inkscape:export-ydpi="200"
         inkscape:export-xdpi="200"
         d="m 86.005082,274.04755 q 0,0.27612 -0.121688,0.49701 -0.101413,0.2209 -0.405643,0.35896 -0.283941,0.13807 -0.770714,0.22091 -0.486765,0.0828 -1.237196,0.0828 -0.730148,0 -1.216907,-0.0828 -0.486765,-0.0828 -0.770721,-0.22091 -0.283947,-0.13806 -0.405643,-0.35896 -0.121687,-0.22089 -0.121687,-0.49701 v -29.07574 h -0.0406 l -7.605722,29.04813 q -0.08113,0.35895 -0.263664,0.60747 -0.182536,0.22089 -0.507049,0.35895 -0.30423,0.13807 -0.790996,0.16568 -0.486765,0.0552 -1.176356,0.0552 -0.689583,0 -1.176349,-0.0828 -0.486765,-0.0552 -0.811279,-0.19329 -0.30423,-0.16568 -0.486765,-0.38658 -0.182536,-0.22089 -0.243383,-0.52462 l -7.342053,-29.04813 h -0.04057 v 29.07574 q 0,0.27612 -0.121691,0.49701 -0.10141,0.2209 -0.405639,0.35896 -0.304229,0.13807 -0.790995,0.22091 -0.466484,0.0828 -1.216916,0.0828 -0.730149,0 -1.216915,-0.0828 -0.486767,-0.0828 -0.790996,-0.22091 -0.283947,-0.13806 -0.405638,-0.35896 -0.10141,-0.22089 -0.10141,-0.49701 V 242.2106 q 0,-1.40823 0.547613,-2.15375 0.547611,-0.74554 1.460298,-0.74554 H 60.9163 q 0.932969,0 1.60227,0.2209 0.669308,0.19328 1.156074,0.69031 0.486773,0.46941 0.811278,1.27015 0.324513,0.77315 0.567895,1.93287 l 5.678935,21.28907 h 0.08113 l 5.881767,-21.23384 q 0.263651,-1.15972 0.567881,-1.96048 0.324513,-0.80075 0.730148,-1.29777 0.425926,-0.49703 0.993829,-0.69031 0.567881,-0.2209 1.318311,-0.2209 h 3.589902 q 0.547621,0 0.932981,0.19328 0.405629,0.1933 0.649011,0.57986 0.263665,0.35896 0.385368,0.91121 0.141963,0.52463 0.141963,1.21494 z"
         style="font-style:normal;font-variant:normal;font-weight:bold;font-stretch:normal;font-size:56.27741623px;line-height:1.25;font-family:Calibri;-inkscape-font-specification:'Calibri Bold';letter-spacing:0px;word-spacing:0px;fill:#cc00ff;fill-opacity:1;stroke:#0000aa;stroke-width:1.07330835;stroke-miterlimit:4;stroke-dasharray:none"
         id="path4557-3"
         inkscape:connector-curvature="0" />
      <path
         inkscape:export-ydpi="200"
         inkscape:export-xdpi="200"
         d="m 103.80761,244.92112 q 0,0.79689 -0.062,1.37396 -0.0414,0.57706 -0.14464,0.93429 -0.0827,0.32975 -0.2273,0.46715 -0.12398,0.13739 -0.30995,0.13739 -0.26862,0 -0.86786,-0.49462 -0.59923,-0.49463 -1.59107,-1.07169 -0.991833,-0.57707 -2.376281,-1.07169 -1.363785,-0.49463 -3.182154,-0.49463 -1.942348,0 -3.512761,0.90682 -1.570414,0.87933 -2.686235,2.52808 -1.115823,1.62128 -1.715061,3.92953 -0.599231,2.28078 -0.599231,5.05618 0,3.05019 0.599231,5.38592 0.619903,2.30825 1.715061,3.87457 1.095157,1.56631 2.624243,2.36321 1.549749,0.7969 3.409449,0.7969 0.909182,0 1.79771,-0.2748 0.888515,-0.27479 1.653062,-0.82437 v -8.24376 H 93.26932 q -0.371942,0 -0.578575,-0.60455 -0.206631,-0.63202 -0.206631,-2.1159 0,-0.76941 0.04135,-1.29152 0.06197,-0.5221 0.165304,-0.82437 0.10332,-0.32975 0.247959,-0.46715 0.144649,-0.16488 0.330616,-0.16488 h 9.029877 q 0.33062,0 0.57859,0.16488 0.26862,0.1374 0.45459,0.43967 0.20663,0.30227 0.30994,0.74194 0.10332,0.41218 0.10332,0.96177 v 14.15179 q 0,0.82438 -0.22729,1.4564 -0.20664,0.60454 -0.88853,0.96177 -0.66122,0.35723 -1.65307,0.74194 -0.991838,0.38471 -2.066335,0.6595 -1.05383,0.27479 -2.148989,0.41219 -1.074483,0.13739 -2.16964,0.13739 -3.202819,0 -5.744406,-1.20908 -2.520924,-1.23657 -4.277312,-3.54482 -1.756381,-2.33573 -2.686227,-5.66072 -0.929854,-3.35246 -0.929854,-7.58426 0,-4.36919 0.991838,-7.83157 0.991845,-3.48986 2.810218,-5.90803 1.818373,-2.44565 4.380624,-3.73717 2.582916,-1.29153 5.744406,-1.29153 1.735716,0 3.161482,0.32975 1.425771,0.30228 2.479605,0.76942 1.0745,0.43967 1.77704,0.96177 0.70256,0.52211 0.97119,0.90682 0.28927,0.38471 0.41327,1.09917 0.12397,0.68698 0.12397,2.06094 z"
         style="font-style:normal;font-variant:normal;font-weight:bold;font-stretch:normal;font-size:56.27741623px;line-height:1.25;font-family:Calibri;-inkscape-font-specification:'Calibri Bold';letter-spacing:0px;word-spacing:0px;fill:#cc00ff;fill-opacity:1;stroke:#0000aa;stroke-width:1.08073938;stroke-miterlimit:4;stroke-dasharray:none"
         id="path4559-2"
         inkscape:connector-curvature="0" />
    </g>
  </g>
</svg>
